<mxfile host="app.diagrams.net" modified="2022-11-19T08:26:35.623Z" agent="5.0 (Windows NT 6.1; WOW64) AppleWebKit/537.36 (KHTML, like Gecko) Chrome/107.0.0.0 Safari/537.36" etag="v4LichkgRp5x3tv7Wd5B" version="20.5.3" type="github">
  <diagram id="_Gc_5kwe4ddjL8RIBcuZ" name="集群">
    <mxGraphModel dx="1422" dy="802" grid="1" gridSize="10" guides="1" tooltips="1" connect="1" arrows="1" fold="1" page="1" pageScale="1" pageWidth="827" pageHeight="1169" math="0" shadow="0">
      <root>
        <mxCell id="0" />
        <mxCell id="1" parent="0" />
        <mxCell id="70bERuP8kn569AHWgTC5-1" value="AD （负载均衡）" style="rounded=0;whiteSpace=wrap;html=1;fontSize=16;fontFamily=微软雅黑;" vertex="1" parent="1">
          <mxGeometry x="49.5" y="230" width="740" height="50" as="geometry" />
        </mxCell>
        <mxCell id="70bERuP8kn569AHWgTC5-8" value="AF （流量安全）" style="rounded=0;whiteSpace=wrap;html=1;fontSize=16;fontFamily=微软雅黑;" vertex="1" parent="1">
          <mxGeometry x="49.5" y="125" width="740" height="50" as="geometry" />
        </mxCell>
        <mxCell id="hTt0XQyXAFKvnhE9snwx-8" value="ingressroute" style="whiteSpace=wrap;html=1;fontSize=16;fontFamily=微软雅黑;flipH=1;" parent="1" vertex="1">
          <mxGeometry x="70" y="585" width="225" height="80" as="geometry" />
        </mxCell>
        <mxCell id="hTt0XQyXAFKvnhE9snwx-10" value="ingressroute" style="whiteSpace=wrap;html=1;fontSize=16;fontFamily=微软雅黑;flipH=1;" parent="1" vertex="1">
          <mxGeometry x="375" y="585" width="191" height="80" as="geometry" />
        </mxCell>
        <mxCell id="hTt0XQyXAFKvnhE9snwx-11" value="微服务" style="whiteSpace=wrap;html=1;aspect=fixed;fontSize=16;fontFamily=微软雅黑;" parent="1" vertex="1">
          <mxGeometry x="382.25" y="770" width="80" height="80" as="geometry" />
        </mxCell>
        <mxCell id="hTt0XQyXAFKvnhE9snwx-13" value="微服务" style="whiteSpace=wrap;html=1;aspect=fixed;fontSize=16;fontFamily=微软雅黑;" parent="1" vertex="1">
          <mxGeometry x="479.75" y="770" width="80" height="80" as="geometry" />
        </mxCell>
        <mxCell id="hTt0XQyXAFKvnhE9snwx-15" value="微服务" style="whiteSpace=wrap;html=1;aspect=fixed;fontSize=16;fontFamily=微软雅黑;" parent="1" vertex="1">
          <mxGeometry x="382.25" y="870" width="80" height="80" as="geometry" />
        </mxCell>
        <mxCell id="70bERuP8kn569AHWgTC5-2" value="ingressroute" style="whiteSpace=wrap;html=1;aspect=fixed;fontSize=16;fontFamily=微软雅黑;flipH=1;" vertex="1" parent="1">
          <mxGeometry x="645" y="585" width="80" height="80" as="geometry" />
        </mxCell>
        <mxCell id="70bERuP8kn569AHWgTC5-3" value="后端服务容器" style="whiteSpace=wrap;html=1;aspect=fixed;fontSize=16;fontFamily=微软雅黑;" vertex="1" parent="1">
          <mxGeometry x="645" y="680" width="80" height="80" as="geometry" />
        </mxCell>
        <mxCell id="70bERuP8kn569AHWgTC5-4" value="BFF（不再维护）" style="rounded=0;whiteSpace=wrap;html=1;fontSize=16;fontFamily=微软雅黑;" vertex="1" parent="1">
          <mxGeometry x="376" y="680" width="190" height="80" as="geometry" />
        </mxCell>
        <mxCell id="70bERuP8kn569AHWgTC5-19" value="" style="group;fontFamily=微软雅黑;" vertex="1" connectable="0" parent="1">
          <mxGeometry x="43.5" y="490" width="740" height="50" as="geometry" />
        </mxCell>
        <UserObject label="Traefik" id="hTt0XQyXAFKvnhE9snwx-6">
          <mxCell style="rounded=0;whiteSpace=wrap;html=1;fontSize=16;fontFamily=微软雅黑;" parent="70bERuP8kn569AHWgTC5-19" vertex="1">
            <mxGeometry width="740" height="50" as="geometry" />
          </mxCell>
        </UserObject>
        <mxCell id="70bERuP8kn569AHWgTC5-15" value="stable" style="rounded=1;arcSize=10;fillColor=#2E282A;strokeColor=none;html=1;fontSize=11;align=center;fontColor=#ffffff;fontStyle=0;fontSize=11;sketch=0;labelBackgroundColor=none;fontFamily=微软雅黑;" vertex="1" parent="70bERuP8kn569AHWgTC5-19">
          <mxGeometry x="30" y="27" width="65" height="20" as="geometry" />
        </mxCell>
        <mxCell id="70bERuP8kn569AHWgTC5-16" value="canary" style="rounded=1;arcSize=10;fillColor=#777DA7;strokeColor=none;html=1;fontSize=11;align=center;fontColor=#ffffff;fontStyle=0;fontSize=11;sketch=0;labelBackgroundColor=none;fontFamily=微软雅黑;" vertex="1" parent="70bERuP8kn569AHWgTC5-19">
          <mxGeometry x="115" y="27" width="65" height="20" as="geometry" />
        </mxCell>
        <mxCell id="70bERuP8kn569AHWgTC5-20" value="&lt;span style=&quot;color: rgb(0, 0, 0); font-size: 16px; font-style: normal; font-variant-ligatures: normal; font-variant-caps: normal; font-weight: 700; letter-spacing: normal; orphans: 2; text-align: left; text-indent: 0px; text-transform: none; widows: 2; word-spacing: 0px; -webkit-text-stroke-width: 0px; background-color: rgb(255, 255, 255); text-decoration-thickness: initial; text-decoration-style: initial; text-decoration-color: initial; float: none; display: inline !important;&quot;&gt;Kubernetes&lt;/span&gt;" style="text;whiteSpace=wrap;html=1;fontSize=16;fontFamily=微软雅黑;" vertex="1" parent="1">
          <mxGeometry x="9.5" y="310" width="130" height="40" as="geometry" />
        </mxCell>
        <mxCell id="70bERuP8kn569AHWgTC5-21" value="...." style="whiteSpace=wrap;html=1;aspect=fixed;fontSize=16;fontFamily=微软雅黑;" vertex="1" parent="1">
          <mxGeometry x="479.75" y="870" width="80" height="80" as="geometry" />
        </mxCell>
        <mxCell id="70bERuP8kn569AHWgTC5-24" value="" style="group;fontFamily=微软雅黑;" vertex="1" connectable="0" parent="1">
          <mxGeometry x="83" y="680" width="80" height="80" as="geometry" />
        </mxCell>
        <mxCell id="hTt0XQyXAFKvnhE9snwx-9" value="前端&lt;br&gt;微服务" style="whiteSpace=wrap;html=1;aspect=fixed;fontSize=16;fontFamily=微软雅黑;" parent="70bERuP8kn569AHWgTC5-24" vertex="1">
          <mxGeometry width="80" height="80" as="geometry" />
        </mxCell>
        <mxCell id="70bERuP8kn569AHWgTC5-18" value="stable" style="rounded=1;arcSize=10;fillColor=#2E282A;strokeColor=none;html=1;fontSize=11;align=center;fontColor=#ffffff;fontStyle=0;fontSize=11;sketch=0;labelBackgroundColor=none;fontFamily=微软雅黑;" vertex="1" parent="70bERuP8kn569AHWgTC5-24">
          <mxGeometry width="80" height="20" as="geometry" />
        </mxCell>
        <mxCell id="70bERuP8kn569AHWgTC5-25" value="" style="group;fontFamily=微软雅黑;" vertex="1" connectable="0" parent="1">
          <mxGeometry x="204" y="680" width="80" height="80" as="geometry" />
        </mxCell>
        <mxCell id="70bERuP8kn569AHWgTC5-22" value="前端&lt;br&gt;微服务" style="whiteSpace=wrap;html=1;aspect=fixed;fontSize=16;fontFamily=微软雅黑;" vertex="1" parent="70bERuP8kn569AHWgTC5-25">
          <mxGeometry width="80" height="80" as="geometry" />
        </mxCell>
        <mxCell id="70bERuP8kn569AHWgTC5-23" value="canary" style="rounded=1;arcSize=10;fillColor=#777DA7;strokeColor=none;html=1;fontSize=11;align=center;fontColor=#ffffff;fontStyle=0;fontSize=11;sketch=0;labelBackgroundColor=none;fontFamily=微软雅黑;" vertex="1" parent="70bERuP8kn569AHWgTC5-25">
          <mxGeometry width="80" height="20" as="geometry" />
        </mxCell>
        <mxCell id="70bERuP8kn569AHWgTC5-26" value="" style="shape=flexArrow;endArrow=classic;html=1;rounded=0;fontFamily=微软雅黑;fontSize=16;startSize=0;" edge="1" parent="1">
          <mxGeometry width="50" height="50" relative="1" as="geometry">
            <mxPoint x="830" y="10" as="sourcePoint" />
            <mxPoint x="830" y="880" as="targetPoint" />
          </mxGeometry>
        </mxCell>
        <mxCell id="70bERuP8kn569AHWgTC5-27" value="流&lt;br&gt;量&lt;br&gt;走&lt;br&gt;向" style="edgeLabel;html=1;align=center;verticalAlign=middle;resizable=0;points=[];fontSize=16;fontFamily=微软雅黑;" vertex="1" connectable="0" parent="70bERuP8kn569AHWgTC5-26">
          <mxGeometry x="-0.8571" relative="1" as="geometry">
            <mxPoint as="offset" />
          </mxGeometry>
        </mxCell>
        <mxCell id="70bERuP8kn569AHWgTC5-28" value="" style="group;fontFamily=微软雅黑;" vertex="1" connectable="0" parent="1">
          <mxGeometry x="83" y="776" width="80" height="80" as="geometry" />
        </mxCell>
        <mxCell id="70bERuP8kn569AHWgTC5-29" value="前端&lt;br&gt;微服务" style="whiteSpace=wrap;html=1;aspect=fixed;fontSize=16;fontFamily=微软雅黑;" vertex="1" parent="70bERuP8kn569AHWgTC5-28">
          <mxGeometry width="80" height="80" as="geometry" />
        </mxCell>
        <mxCell id="70bERuP8kn569AHWgTC5-30" value="stable" style="rounded=1;arcSize=10;fillColor=#2E282A;strokeColor=none;html=1;fontSize=11;align=center;fontColor=#ffffff;fontStyle=0;fontSize=11;sketch=0;labelBackgroundColor=none;fontFamily=微软雅黑;" vertex="1" parent="70bERuP8kn569AHWgTC5-28">
          <mxGeometry width="80" height="20" as="geometry" />
        </mxCell>
        <mxCell id="70bERuP8kn569AHWgTC5-31" value="" style="group;fontFamily=微软雅黑;" vertex="1" connectable="0" parent="1">
          <mxGeometry x="203" y="776" width="80" height="80" as="geometry" />
        </mxCell>
        <mxCell id="70bERuP8kn569AHWgTC5-32" value="前端&lt;br&gt;微服务" style="whiteSpace=wrap;html=1;aspect=fixed;fontSize=16;fontFamily=微软雅黑;" vertex="1" parent="70bERuP8kn569AHWgTC5-31">
          <mxGeometry width="80" height="80" as="geometry" />
        </mxCell>
        <mxCell id="70bERuP8kn569AHWgTC5-33" value="canary" style="rounded=1;arcSize=10;fillColor=#777DA7;strokeColor=none;html=1;fontSize=11;align=center;fontColor=#ffffff;fontStyle=0;fontSize=11;sketch=0;labelBackgroundColor=none;fontFamily=微软雅黑;" vertex="1" parent="70bERuP8kn569AHWgTC5-31">
          <mxGeometry width="80" height="20" as="geometry" />
        </mxCell>
        <mxCell id="70bERuP8kn569AHWgTC5-35" value="CDN" style="rounded=0;whiteSpace=wrap;html=1;fontSize=16;fontFamily=微软雅黑;" vertex="1" parent="1">
          <mxGeometry x="49.5" y="20" width="740" height="50" as="geometry" />
        </mxCell>
        <mxCell id="70bERuP8kn569AHWgTC5-36" value="" style="group" vertex="1" connectable="0" parent="1">
          <mxGeometry x="44.5" y="350" width="730" height="70" as="geometry" />
        </mxCell>
        <mxCell id="hTt0XQyXAFKvnhE9snwx-1" value="work - 2" style="rounded=0;whiteSpace=wrap;html=1;fontSize=16;fontFamily=微软雅黑;" parent="70bERuP8kn569AHWgTC5-36" vertex="1">
          <mxGeometry x="153" width="120" height="70" as="geometry" />
        </mxCell>
        <mxCell id="hTt0XQyXAFKvnhE9snwx-2" value="work - 3" style="rounded=0;whiteSpace=wrap;html=1;fontSize=16;fontFamily=微软雅黑;" parent="70bERuP8kn569AHWgTC5-36" vertex="1">
          <mxGeometry x="305" width="120" height="70" as="geometry" />
        </mxCell>
        <mxCell id="hTt0XQyXAFKvnhE9snwx-3" value="work - 4" style="rounded=0;whiteSpace=wrap;html=1;fontSize=16;fontFamily=微软雅黑;" parent="70bERuP8kn569AHWgTC5-36" vertex="1">
          <mxGeometry x="458" width="120" height="70" as="geometry" />
        </mxCell>
        <mxCell id="hTt0XQyXAFKvnhE9snwx-4" value="work - 5" style="rounded=0;whiteSpace=wrap;html=1;fontSize=16;fontFamily=微软雅黑;" parent="70bERuP8kn569AHWgTC5-36" vertex="1">
          <mxGeometry x="610" width="120" height="70" as="geometry" />
        </mxCell>
        <mxCell id="hTt0XQyXAFKvnhE9snwx-5" value="work - 1" style="rounded=0;whiteSpace=wrap;html=1;fontSize=16;fontFamily=微软雅黑;" parent="70bERuP8kn569AHWgTC5-36" vertex="1">
          <mxGeometry width="120" height="70" as="geometry" />
        </mxCell>
      </root>
    </mxGraphModel>
  </diagram>
</mxfile>
